<svg data-v-29081953="" xmlns="http://www.w3.org/2000/svg" viewBox="0 0 300 300"><!----><defs data-v-29081953=""><!----></defs><rect data-v-29081953="" fill="transparent" x="0" y="0" width="300px" height="300px" class="logo-background-square"></rect><!----><defs data-v-29081953=""><!----></defs><g data-v-29081953="" id="f8eafd37-d9c0-4839-b938-4a250ea9a2bb" stroke="none" transform="matrix(2.2000182954402314,0,0,2.2000182954402314,39.99907543021302,39.99908351540585)"><path d="M98.169 89.331L58.838 50l39.331-39.331a6.249 6.249 0 0 0 0-8.838 6.249 6.249 0 0 0-8.838 0L50 41.162 10.669 1.831a6.249 6.249 0 0 0-8.838 0 6.249 6.249 0 0 0 0 8.838L41.162 50 1.831 89.331a6.249 6.249 0 0 0 0 8.838 6.249 6.249 0 0 0 8.838 0L50 58.838l39.331 39.331a6.249 6.249 0 0 0 8.838 0 6.249 6.249 0 0 0 0-8.838z"></path></g><!----></svg>